<svg xmlns="http://www.w3.org/2000/svg"><defs><font id="sansation_lightlight" horiz-adv-x="1492"><font-face units-per-em="2048" ascent="1638" descent="-410"/><glyph unicode="ﬁ" horiz-adv-x="1061" d="M160 0v1121q0 381 392 381 149 0 279-70v-90q-124 70-280 70-286 0-286-283v-79h626V0H786v960H265V0H160z"/><glyph unicode="ﬂ" horiz-adv-x="1081" d="M160 0v1121q0 381 412 381 169 0 349-70V0H816v1378q-119 34-245 34-306 0-306-283v-79h315v-90H265V0H160z"/><glyph horiz-adv-x="0"/><glyph horiz-adv-x="410"/><glyph horiz-adv-x="500"/><glyph horiz-adv-x="500"/><glyph horiz-adv-x="500"/><glyph unicode="!" horiz-adv-x="425" d="M160 0v105h105V0H160zm0 370v1060h105V370H160z"/><glyph unicode="&quot;" horiz-adv-x="625" d="M110 1430h115l-30-435h-55zm290 0h115l-30-435h-55z"/><glyph unicode="#" horiz-adv-x="1903" d="M110 374l20 94h392l109 438H230l20 94h402l110 425h100l-110-425h458l112 430h100l-111-430h482l-20-94h-482l-109-438h491l-20-94h-492L1061-5H961l100 379H603L503-5H403l99 379H110zm513 94h457l110 438H733z"/><glyph unicode="$" horiz-adv-x="1030" d="M110 940q0 276 369 298v192h95v-190q155-4 316-50v-100q-175 60-343 60-332 0-332-210 0-180 225-180h130q350 0 350-270 0-267-346-296V0h-95v190q-167 1-339 50v100q175-60 344-60 331 0 331 210 0 170-245 170H440q-330 0-330 280z"/><glyph unicode="%" horiz-adv-x="1362" d="M110 0l1017 1430h125L235 0H110zm0 1180q0 260 278 260 274 0 274-260 0-259-274-259-278 0-278 259zm100 2q0-177 178-177 174 0 174 177 0 174-174 174-178 0-178-174zm490-933q0 260 278 260 274 0 274-260 0-259-274-259-278 0-278 259zm100 2q0-177 178-177 174 0 174 177 0 174-174 174-178 0-178-174z"/><glyph unicode="&amp;" horiz-adv-x="1295" d="M110 394q0 247 223 333-223 65-223 318 0 385 510 385 185 0 360-50v-90q-185 50-357 50-408 0-408-290 0-280 335-280h468v172h73l22-172h172v-90h-162V490Q1123-3 605-3 110-3 110 394zm105 5q0-309 381-309 422 0 422 402v188H552q-337 0-337-281z"/><glyph unicode="'" horiz-adv-x="335" d="M110 1430h115l-30-435h-55z"/><glyph unicode="(" horiz-adv-x="525" d="M110 525q0 453 200 905h105Q215 978 215 525t200-905H310Q110 72 110 525z"/><glyph unicode=")" horiz-adv-x="525" d="M110-380Q310 72 310 525t-200 905h105q200-452 200-905T215-380H110z"/><glyph unicode="*" horiz-adv-x="830" d="M110 1150l48 150 211-103-31 233h156l-30-232 209 101 48-147-228-43 159-170-123-92-113 205-113-204-124 89 161 171z"/><glyph unicode="+" horiz-adv-x="970" d="M110 480v90h330v330h100V570h320v-90H540V150H440v330H110z"/><glyph unicode="," horiz-adv-x="305" d="M25-250l150 435h105L130-250H25z"/><glyph unicode="-" horiz-adv-x="720" d="M110 480v90h500v-90H110z"/><glyph unicode="." horiz-adv-x="355" d="M110 0v125h135V0H110z"/><glyph unicode="/" horiz-adv-x="985" d="M35 0l725 1430h115L150 0H35z"/><glyph unicode="0" horiz-adv-x="1445" d="M110 713q0 727 618 727 607 0 607-727 0-723-607-723-586 0-618 723zm115 6q0-639 503-639 492 0 492 639 0 631-492 631-503 0-503-631z"/><glyph unicode="1" horiz-adv-x="605" d="M110 1311v59l255 70V0H260v1311H110z"/><glyph unicode="2" horiz-adv-x="1230" d="M110 0v90q875 607 875 930 0 330-420 330-220 0-415-110v100q195 100 415 100 525 0 525-420 0-370-824-930h824V0H110z"/><glyph unicode="3" horiz-adv-x="1160" d="M110 50v100q200-70 400-70 410 0 410 320 0 280-332 280H260v90h325q335 0 335 280 0 300-410 300-200 0-400-70v100q200 60 400 60 515 0 515-390 0-256-238-325 238-65 238-325 0-410-515-410-200 0-400 60z"/><glyph unicode="4" horiz-adv-x="1220" d="M60 340v90l625 1000h114L173 430h709v568h105V430l158-36v-54H987V0H882v340H60z"/><glyph unicode="5" horiz-adv-x="1145" d="M115 50v100q200-70 410-70 415 0 415 360 0 310-405 310-225 0-420-50l50 730h824v-90H253l-34-522q187 22 316 22 510 0 510-400 0-450-530-450-200 0-400 60z"/><glyph unicode="6" horiz-adv-x="1250" d="M110 550q0 556 658 923l46-77q-439-263-544-539 181 63 356 63 524 0 524-450 0-480-513-480-527 0-527 560zm95 6q0-476 441-476 403 0 403 390 0 360-422 360-214 0-384-68-38-70-38-206z"/><glyph unicode="7" horiz-adv-x="1135" d="M110 1340v90h970v-90L418 0H297l672 1340H110z"/><glyph unicode="8" horiz-adv-x="1260" d="M110 424q0 243 252 321-212 85-212 333 0 366 480 366t480-366q0-248-217-333 257-78 257-321 0-434-520-434T110 424zm105-6q0-338 420-338 410 0 410 338 0 282-423 282-407 0-407-282zm40 640q0-268 380-268 370 0 370 268 0 292-383 292-367 0-367-292z"/><glyph unicode="9" horiz-adv-x="1210" d="M110 963q0 480 513 480 527 0 527-560 0-556-658-923l-56 77q449 263 554 539-181-63-356-63-524 0-524 450zm101 0q0-360 422-360 214 0 384 68 38 70 38 206 0 476-441 476-403 0-403-390z"/><glyph unicode=":" horiz-adv-x="395" d="M150 0v125h135V0H150zm0 925v125h135V925H150z"/><glyph unicode=";" horiz-adv-x="545" d="M110-250l150 435h105L215-250H110zM250 925v125h135V925H250z"/><glyph unicode="&lt;" horiz-adv-x="1120" d="M110 470v110l900 420V890L197 521l813-361V50z"/><glyph unicode="=" horiz-adv-x="970" d="M110 330v90h750v-90H110zm0 300v90h750v-90H110z"/><glyph unicode="&gt;" horiz-adv-x="1120" d="M110 50v110l813 361-813 369v110l900-420V470z"/><glyph unicode="?" horiz-adv-x="1135" d="M110 1290v90q210 50 400 50 515 0 515-390T528 650H405V370H300v370h225q395 0 395 300t-410 300q-190 0-400-50zM300 0v105h105V0H300z"/><glyph unicode="@" horiz-adv-x="2170" d="M160 540q0 900 924 900 926 0 926-900 0-690-377-690-248 0-248 254Q1205 0 1020 0 665 0 665 297q0 313 406 313 147 0 314-20v129q0 241-303 241-162 0-332-50v90q170 50 332 50 408 0 408-326V98q0-158 150-158 265 0 265 600 0 810-806 810-834 0-834-810 0-830 765-830v-90q-870 0-870 920zm610-240q0-210 250-210 192 0 365 102v308q-167 20-314 20-301 0-301-220z"/><glyph unicode="A" d="M35 0l647 1430h125L1457 0h-125l-212 480H479l31 90h571l-343 778L147 0H35z"/><glyph unicode="B" horiz-adv-x="1330" d="M160 0v1430h610q408 0 408-333 0-244-296-349 314-53 314-335Q1196 0 749 0H160zm105 90h473q346 0 346 320 0 283-433 283h-80v71q500 45 500 326 0 250-308 250H265V90z"/><glyph unicode="C" horiz-adv-x="1405" d="M110 735q0 705 750 705 205 0 400-60v-90q-195 60-380 60-665 0-665-615 0-655 665-655 185 0 380 60V50q-195-60-400-60-750 0-750 745z"/><glyph unicode="D" horiz-adv-x="1470" d="M160 0v1430h510q700 0 700-676Q1370 0 660 0H160zm105 90h395q595 0 595 664 0 586-595 586H265V90z"/><glyph unicode="E" horiz-adv-x="1248" d="M160 0v1430h939v-90H265V770h800v-90H265V90h848V0H160z"/><glyph unicode="F" horiz-adv-x="1174" d="M160 0v1430h939v-90H265V770h800v-90H265V0H160z"/><glyph unicode="G" horiz-adv-x="1405" d="M110 735q0 705 750 705 205 0 400-60v-90q-195 60-380 60-665 0-665-615 0-655 646-655 132 0 294 44v526h105V56q-183-66-383-66-767 0-767 745z"/><glyph unicode="H" horiz-adv-x="1505" d="M160 0v1430h105V770h975v660h105V0h-105v680H265V0H160z"/><glyph unicode="I" horiz-adv-x="525" d="M210 0v1430h105V0H210z"/><glyph unicode="J" horiz-adv-x="650" d="M35 0v90q350 0 350 322v1018h105V412Q490 0 35 0z"/><glyph unicode="K" horiz-adv-x="1300" d="M160 0v1430h105V0H160zm300 718v62l642 650h144L565 753 1270 0h-157z"/><glyph unicode="L" horiz-adv-x="1143" d="M160 0v1430h105V90h828V0H160z"/><glyph unicode="M" horiz-adv-x="1770" d="M160 0v1430h105L910 123l605 1307h95V0h-95v1237L947 0h-86L255 1247V0h-95z"/><glyph unicode="N" horiz-adv-x="1505" d="M160 0v1430h135l955-1252v1252h95V0h-85L255 1312V0h-95z"/><glyph unicode="O" horiz-adv-x="1645" d="M110 713q0 727 718 727 707 0 707-727 0-723-707-723-718 0-718 723zm115 6q0-639 603-639 592 0 592 639 0 631-592 631-603 0-603-631z"/><glyph unicode="P" horiz-adv-x="1263" d="M160 0v1430h600q418 0 418-393 0-387-669-493l-18 96q570 79 570 389 0 308-318 308H265V0H160z"/><glyph unicode="Q" horiz-adv-x="1645" d="M110 713q0 727 718 727 707 0 707-727 0-598-535-716l262-300-94-68L858-10q-748 0-748 723zm115 6q0-629 603-629 592 0 592 629 0 631-592 631-603 0-603-631z"/><glyph unicode="R" horiz-adv-x="1235" d="M160 0v1430h590q388 0 388-343 0-297-421-421L1200 0h-144L581 663v71q440 65 440 345 0 258-288 258H265V0H160z"/><glyph unicode="S" horiz-adv-x="1310" d="M110 1030q0 410 585 410 240 0 465-60v-100q-225 70-465 70-480 0-480-320 0-260 294-260h294q397 0 397-350 0-430-554-430-271 0-496 60v110q225-80 496-80 449 0 449 340 0 250-292 250H509q-399 0-399 360z"/><glyph unicode="T" horiz-adv-x="1095" d="M10 1340v90h1075v-90H595V0H490v1340H10z"/><glyph unicode="U" horiz-adv-x="1470" d="M160 552v878h105V552q0-472 470-472t470 472v878h105V552q0-562-575-562T160 552z"/><glyph unicode="V" d="M35 1430h115L751 81l594 1349h112L830 0H665z"/><glyph unicode="W" horiz-adv-x="1869" d="M35 1430h109L377 101l462 1329h105L1419 88l265 1342h101L1496 0h-152L892 1306 439 0H290z"/><glyph unicode="X" horiz-adv-x="1320" d="M35 0l563 715-563 715h125l500-636 500 636h125L723 715 1285 0h-125L660 636 160 0H35z"/><glyph unicode="Y" horiz-adv-x="1250" d="M35 1430h125l463-830 477 830h115L679 500V0H574v500z"/><glyph unicode="Z" horiz-adv-x="1270" d="M135 0v80l894 1260H155v90h980v-90L268 90h847V0H135z"/><glyph unicode="[" horiz-adv-x="565" d="M160-380v1810h370v-90H255V-290h275v-90H160z"/><glyph unicode="\" horiz-adv-x="985" d="M35 1430h115L875 0H760z"/><glyph unicode="]" horiz-adv-x="565" d="M35-290h275v1630H35v90h370V-380H35v90z"/><glyph unicode="^" horiz-adv-x="1070" d="M60 700l400 730h150l400-730H900l-369 673-361-673H60z"/><glyph unicode="_" horiz-adv-x="1070" d="M35 0h1000v-90H35V0z"/><glyph unicode="`" horiz-adv-x="523" d="M100 1430h159l164-239h-84z"/><glyph unicode="a" horiz-adv-x="1095" d="M100 297q0 313 416 313 147 0 314-20v129q0 241-303 241-162 0-332-50v90q170 50 332 50 408 0 408-326V0h-64l-24 104Q650 0 465 0 100 0 100 297zm105 3q0-210 260-210 192 0 365 102v308q-167 20-314 20-311 0-311-220z"/><glyph unicode="b" horiz-adv-x="1178" d="M160 43v1387h105v-430q189 50 325 50 478 0 478-504Q1068 0 565 0 339 0 160 43zm105 80q161-29 291-29 410 0 410 459 0 397-377 397-144 0-324-54V123z"/><glyph unicode="c" horiz-adv-x="1005" d="M110 545q0 505 530 505 150 0 280-30v-90q-140 30-270 30-425 0-425-415 0-455 425-455 130 0 270 30V30Q790 0 640 0 110 0 110 545z"/><glyph unicode="d" horiz-adv-x="1190" d="M110 546q0 504 498 504 156 0 317-50v430h105V63Q859 0 599 0 110 0 110 546zm112 7q0-459 387-459 164 0 316 39v763q-152 54-316 54-387 0-387-397z"/><glyph unicode="e" horiz-adv-x="1124" d="M110 537q0 513 473 513 431 0 431-477 0-34-2-71H215q0-412 436-412 179 0 318 50V50Q830 0 651 0 110 0 110 537zm105 59h698q-6 366-330 366-350 0-368-366z"/><glyph unicode="f" horiz-adv-x="696" d="M160 0v1101q0 381 422 381 129 0 234-40v-90q-99 40-235 40-316 0-316-293v-49h395v-90H265V0H160z"/><glyph unicode="g" horiz-adv-x="1187" d="M110 531q0 519 535 519 203 0 382-43V0q0-380-463-380-194 0-344 50v90q153-50 346-50 356 0 356 290v50Q744 0 608 0 110 0 110 531zm102 2q0-433 397-433 144 0 313 54v778q-145 24-285 24-425 0-425-423z"/><glyph unicode="h" horiz-adv-x="1185" d="M160 0v1430h105V936q184 114 377 114 383 0 383-391V0H920v702q0 254-283 254-189 0-372-133V0H160z"/><glyph unicode="i" horiz-adv-x="465" d="M170 1310v120h125v-120H170zM180 0v1050h105V0H180z"/><glyph unicode="j" horiz-adv-x="465" d="M55-303Q180-188 180 80v970h105V80q0-318-155-448zm115 1613v120h125v-120H170z"/><glyph unicode="k" horiz-adv-x="1106" d="M150 0v1430h105V958q183 92 403 92 372 0 372-303 0-230-330-314L1056 0H902L568 435v63q357 41 357 250 0 212-290 212-193 0-380-94V0H150z"/><glyph unicode="l" horiz-adv-x="465" d="M180 0v1430h105V0H180z"/><glyph unicode="m" horiz-adv-x="1795" d="M160 0v1050h75l11-132q161 132 349 132 248 0 321-144 181 144 367 144 352 0 352-349V0h-105v701q0 255-248 255-198 0-327-136V0H850v718q0 238-256 238-186 0-329-136V0H160z"/><glyph unicode="n" horiz-adv-x="1185" d="M160 0v1050h75l13-134q201 134 394 134 383 0 383-331V0H920v722q0 234-283 234-189 0-372-133V0H160z"/><glyph unicode="o" horiz-adv-x="1200" d="M110 525q0 535 490 535t490-535Q1090-9 600-9 112-9 110 525zm105 4q0-449 385-449t385 449q0 441-385 441T215 529z"/><glyph unicode="p" horiz-adv-x="1177" d="M160-380v1387q179 43 402 43 505 0 505-499Q1067 0 559 0 433 0 265 50v-430H160zm105 534q159-54 293-54 407 0 407 453 0 403-405 403-140 0-295-24V154z"/><glyph unicode="q" horiz-adv-x="1187" d="M110 531q0 519 525 519 213 0 392-43V-380H922V50Q744 0 608 0 110 0 110 531zm102 2q0-433 397-433 144 0 313 54v778q-155 24-295 24-415 0-415-423z"/><glyph unicode="r" horiz-adv-x="635" d="M160 0v1050h75l13-174q158 174 352 174v-84q-188 0-335-183V0H160z"/><glyph unicode="s" horiz-adv-x="1030" d="M106 750q0 300 437 300 168 0 343-50V900q-175 60-343 60-332 0-332-210 0-180 225-180h134q350 0 350-270Q920 0 484 0 315 0 140 50v100q175-60 344-60 331 0 331 210 0 170-245 170H436q-330 0-330 280z"/><glyph unicode="t" horiz-adv-x="627" d="M156 283v937h74l19-170h315v-90H258V297q0-207 152-207h154V0H412Q156 0 156 283z"/><glyph unicode="u" horiz-adv-x="1185" d="M160 391v659h105V388q0-294 272-294 199 0 383 133v823h105V0h-77l-12 134Q755 0 532 0 160 0 160 391z"/><glyph unicode="v" horiz-adv-x="1030" d="M10 1050h120L514 91l386 959h120L573 0H451z"/><glyph unicode="w" horiz-adv-x="1539" d="M60 1050h107l226-923 333 923h77l342-903 231 903h103L1205 0h-109L765 895 439 0H326z"/><glyph unicode="x" horiz-adv-x="1010" d="M35 0l408 525-408 525h125l345-444 345 444h125L568 525 975 0H850L505 444 160 0H35z"/><glyph unicode="y" horiz-adv-x="1081" d="M35 1050h121l390-948 384 948h116L590-31Q474-317 242-388l-31 84q182 66 278 288z"/><glyph unicode="z" horiz-adv-x="1020" d="M110 0v90l675 870H130v90h780v-90L243 90h647V0H110z"/><glyph unicode="{" horiz-adv-x="590" d="M110 480v90q210 0 210 382 0 302 130 478h105q-130-176-130-478 0-352-190-427 190-75 190-427 0-302 130-478H450Q320-204 320 98q0 382-210 382z"/><glyph unicode="|" horiz-adv-x="425" d="M160-380v1810h105V-380H160z"/><glyph unicode="}" horiz-adv-x="590" d="M35-380Q165-204 165 98q0 352 190 427-190 75-190 427 0 302-130 478h105q130-176 130-478 0-382 210-382v-90q-210 0-210-382 0-302-130-478H35z"/><glyph unicode="~" horiz-adv-x="970" d="M110 460v90q58 61 162 61 86 0 203-41 117-40 207-40 109 0 178 60v-90q-58-60-162-60-86 0-203 40-117 41-207 41-109 0-178-61z"/><glyph unicode="¡" horiz-adv-x="425" d="M160-380V680h105V-380H160zm0 1325v105h105V945H160z"/><glyph unicode="¢" horiz-adv-x="1005" d="M110 735q0 465 450 502v193h115v-190q130-4 245-30v-90q-140 30-270 30-425 0-425-415 0-455 425-455 130 0 270 30v-90q-115-26-245-30V0H560v193q-450 40-450 542z"/><glyph unicode="£" horiz-adv-x="1237" d="M110-30v92q186 75 186 351 0 117-77 291t-77 323q0 413 538 413 290 0 447-100v-120q-158 130-444 130-424 0-424-321 0-144 55-259h446v-90H346q59-164 59-264 0-137-64-298 41 4 85 4 137 0 297-43 61-17 121-17 145 0 283 98V50q-120-84-284-84-94 0-201 28-129 32-246 32-153 0-286-56z"/><glyph unicode="¤" horiz-adv-x="1119" d="M110 153l136 120q-77 103-77 252 0 157 77 261L110 906l69 72 125-141q108 74 262 74t250-77l124 138 69-66-142-126q82-107 82-245 0-169-78-262l138-110-70-72-118 133q-118-80-263-80-144 0-263 80L179 91zm142 376q0-306 305-306t305 306q0 304-305 304T252 529z"/><glyph unicode="¥" horiz-adv-x="1270" d="M60 1430h125l442-661 448 661h135L717 730h373v-90H674V469h416v-90H674V0H569v379H180v90h389v171H180v90h347z"/><glyph unicode="¦" horiz-adv-x="425" d="M160 350h105v-730H160v730zm0 350v730h104V700H160z"/><glyph unicode="§" horiz-adv-x="1070" d="M110 720q0 148 162 206-162 50-162 224 0 290 457 290 168 0 343-50v-100q-175 60-343 60-352 0-352-200 0-170 255-170h110q380 0 380-267 0-160-165-214 165-62 165-219 0-290-436-290-189 0-364 50v100q175-60 364-60 331 0 331 200 0 170-275 170H470q-360 0-360 270zm105-3q0-179 265-179h110q265 0 265 166 0 187-265 187H480q-265 0-265-174z"/><glyph unicode="¨" horiz-adv-x="635" d="M90 1280v130h135v-130H90zm320 0v130h135v-130H410z"/><glyph unicode="©" horiz-adv-x="1785" d="M150 723q0 717 748 717 737 0 737-717 0-733-737-733-748 0-748 733zm105-4q0-639 623-639 652 0 652 639 0 631-632 631-643 0-643-631zm222 9q0 416 416 416 165 0 290-51v-98q-125 58-276 58-325 0-325-325 0-352 325-352 151 0 276 58v-98q-125-51-290-51-416 0-416 443z"/><glyph unicode="ª" horiz-adv-x="632" d="M100 1069q0 161 213 161 79 0 137-10v50q0 86-142 86-80 0-166-26v76q86 24 166 24 224 0 224-168V906h-46l-28 36q-68-36-160-36-198 0-198 163zm82 1q0-90 116-90 96 0 152 42v124q-55 10-137 10-131 0-131-86z"/><glyph unicode="«" horiz-adv-x="869" d="M110 525l258 375h122L232 525l258-375H368zm319 0l258 375h122L551 525l258-375H687z"/><glyph unicode="¬" horiz-adv-x="1105" d="M110 960v90h885V710h-90v250H110z"/><glyph unicode="­" horiz-adv-x="720" d="M110 480v90h500v-90H110z"/><glyph unicode="®" horiz-adv-x="1183" d="M160 1023q0 427 430 427 433 0 433-427 0-415-433-415-418 0-430 415zm73 2q0-361 357-361 360 0 360 361 0 369-360 369-357 0-357-369zm181-269v536h229q153 0 153-128 0-105-150-155l184-253h-91L568 997v45q154 25 154 119 0 74-86 74H483V756h-69z"/><glyph unicode="¯" horiz-adv-x="700" d="M100 1340v90h500v-90H100z"/><glyph unicode="°" horiz-adv-x="772" d="M110 1170q0 260 278 260 274 0 274-260 0-259-274-259-278 0-278 259zm90 2q0-187 188-187 184 0 184 187 0 184-184 184-188 0-188-184z"/><glyph unicode="±" horiz-adv-x="970" d="M110 0v90h750V0H110zm0 630v90h320v330h110V720h320v-90H540V300H430v330H110z"/><glyph unicode="²" horiz-adv-x="610" d="M60 710v95q387 253 387 405 0 125-160 125-110 0-207-55v100q97 50 207 50 263 0 263-220 0-175-337-405h337v-95H60z"/><glyph unicode="³" horiz-adv-x="598" d="M60 736v100q100-36 200-36 176 0 176 120 0 106-136 106H136v94h162q138 0 138 106 0 110-176 110-100 0-200-36v100q100 30 200 30 278 0 278-204 0-108-94-153 94-43 94-153 0-214-278-214-100 0-200 30z"/><glyph unicode="´" horiz-adv-x="523" d="M100 1191l164 239h159l-239-239h-84z"/><glyph unicode="µ" horiz-adv-x="1205" d="M160-380v1430h95V378q0-284 322-284 159 0 363 133v823h105V0h-77l-12 134Q715 0 542 0 358 0 255 120v-500h-95z"/><glyph unicode="¶" horiz-adv-x="973" d="M10 986q0 444 443 444h510v-90H813V-434H713v1774H553V-434H453v972Q10 538 10 986z"/><glyph unicode="·" horiz-adv-x="430" d="M120 525q0 95 95 95t95-95-95-95-95 95z"/><glyph unicode="¸" horiz-adv-x="657" d="M100-284q108-60 216-60 148 0 148 95 0 94-123 94H188L319 75h95L333-77q224 0 224-172 0-173-241-173-108 0-216 50v88z"/><glyph unicode="¹" horiz-adv-x="348" d="M60 1311v55l178 60V710H136v601H60z"/><glyph unicode="º" horiz-adv-x="700" d="M100 1168q0 262 250 262t250-262-250-262q-248 0-250 262zm83 2q0-190 167-190 168 0 168 190 0 186-168 186-167 0-167-186z"/><glyph unicode="»" horiz-adv-x="869" d="M60 150l258 375L60 900h122l258-375-258-375H60zm319 0l258 375-258 375h122l258-375-258-375H379z"/><glyph unicode="¼" horiz-adv-x="1469" d="M110 0l945 1430h125L235 0H110zm53 1311v55l178 60V710H239v601h-76zM882 26v100q100-36 200-36 174 0 174 120 0 106-136 106H956v94h163q137 0 137 106 0 110-174 110-100 0-200-36v100q100 30 200 30 277 0 277-204 0-108-94-153 94-43 94-153 0-214-277-214-100 0-200 30z"/><glyph unicode="½" horiz-adv-x="1462" d="M110 0l945 1430h125L235 0H110zm53 1311v55l178 60V710H239v601h-76zM862 0v95q388 253 388 405 0 125-160 125-110 0-208-55v100q98 50 208 50 262 0 262-220 0-175-338-405h338V0H862z"/><glyph unicode="¾" horiz-adv-x="1510" d="M110 736v100q100-36 200-36 174 0 174 120 0 106-136 106H184v94h163q137 0 137 106 0 110-174 110-100 0-200-36v100q100 30 200 30 277 0 277-204 0-108-94-153 94-43 94-153 0-214-277-214-100 0-200 30zM201 0l945 1430h125L326 0H201zm611 150v94l238 470h102L919 244h255v304h102V244l74-38v-56h-74V0h-102v150H812z"/><glyph unicode="¿" horiz-adv-x="1135" d="M110 10q0 390 497 390h123v280h105V310H610q-395 0-395-300t410-300q190 0 400 50v-90q-210-50-400-50-515 0-515 390zm620 935v105h105V945H730z"/><glyph unicode="À" d="M35 0l647 1430h125L1457 0h-125l-212 480H479l31 90h571l-343 778L147 0H35zm496 1810h159l164-239h-84z"/><glyph unicode="Á" d="M35 0l647 1430h125L1457 0h-125l-212 480H479l31 90h571l-343 778L147 0H35zm603 1571l164 239h159l-239-239h-84z"/><glyph unicode="Â" d="M35 0l647 1430h125L1457 0h-125l-212 480H479l31 90h571l-343 778L147 0H35zm461 1550l195 260h110l195-260H896l-152 194-148-194H496z"/><glyph unicode="Ã" d="M35 0l647 1430h125L1457 0h-125l-212 480H479l31 90h571l-343 778L147 0H35zm461 1674v90q60 46 130 46 52 0 110-26t114-26q75 0 146 46v-90q-60-46-130-46-52 0-110 26t-114 26q-75 0-146-46z"/><glyph unicode="Ä" d="M35 0l647 1430h125L1457 0h-125l-212 480H479l31 90h571l-343 778L147 0H35zm484 1660v130h135v-130H519zm320 0v130h135v-130H839z"/><glyph unicode="Å" d="M35 0l644 1424q-149 28-149 193 0 200 218 200 214 0 214-200 0-168-152-194L1457 0h-125l-212 480H479l31 90h571l-343 778L147 0H35zm575 1619q0-137 138-137 134 0 134 137 0 134-134 134-138 0-138-134z"/><glyph unicode="Æ" horiz-adv-x="1895" d="M35 0l607 1430h1098v-90H822l240-570h643v-90h-604l256-590h403V0h-498L705 1353 402 570h501l28-90H351L157 0H35z"/><glyph unicode="Ç" horiz-adv-x="1405" d="M110 735q0 705 750 705 205 0 400-60v-90q-195 60-380 60-665 0-665-615 0-655 665-655 185 0 380 60V50Q1070-9 870-10l-36-67q224 0 224-172 0-173-241-173-108 0-216 50v88q108-60 216-60 148 0 148 95 0 94-123 94H689L773-7Q110 34 110 735z"/><glyph unicode="È" horiz-adv-x="1248" d="M160 0v1430h939v-90H265V770h800v-90H265V90h848V0H160zm261 1810h159l164-239h-84z"/><glyph unicode="É" horiz-adv-x="1248" d="M160 0v1430h939v-90H265V770h800v-90H265V90h848V0H160zm369 1571l164 239h159l-239-239h-84z"/><glyph unicode="Ê" horiz-adv-x="1248" d="M160 0v1430h939v-90H265V770h800v-90H265V90h848V0H160zm227 1550l195 260h110l195-260H787l-152 194-148-194H387z"/><glyph unicode="Ë" horiz-adv-x="1248" d="M160 0v1430h939v-90H265V770h800v-90H265V90h848V0H160zm249 1660v130h135v-130H409zm320 0v130h135v-130H729z"/><glyph unicode="Ì" horiz-adv-x="525" d="M47 1810h159l164-239h-84zM210 0v1430h105V0H210z"/><glyph unicode="Í" horiz-adv-x="525" d="M155 1571l164 239h159l-239-239h-84zM210 0v1430h105V0H210z"/><glyph unicode="Î" horiz-adv-x="525" d="M13 1550l195 260h110l195-260H413l-152 194-148-194H13zM211 0v1430h105V0H211z"/><glyph unicode="Ï" horiz-adv-x="525" d="M45 1660v130h135v-130H45zM220 0v1430h105V0H220zm145 1660v130h135v-130H365z"/><glyph unicode="Ð" horiz-adv-x="1470" d="M-40 680v90h200v660h510q700 0 700-676Q1370 0 660 0H160v680H-40zM265 90h395q595 0 595 664 0 586-595 586H265V770h445v-90H265V90z"/><glyph unicode="Ñ" horiz-adv-x="1505" d="M160 0v1430h135l955-1252v1252h95V0h-85L255 1312V0h-95zm343 1674v90q60 46 130 46 52 0 110-26t114-26q75 0 146 46v-90q-60-46-130-46-52 0-110 26t-114 26q-75 0-146-46z"/><glyph unicode="Ò" horiz-adv-x="1645" d="M110 713q0 727 718 727 707 0 707-727 0-723-707-723-718 0-718 723zm115 6q0-639 603-639 592 0 592 639 0 631-592 631-603 0-603-631zm382 1091h159l164-239h-84z"/><glyph unicode="Ó" horiz-adv-x="1645" d="M110 713q0 727 718 727 707 0 707-727 0-723-707-723-718 0-718 723zm115 6q0-639 603-639 592 0 592 639 0 631-592 631-603 0-603-631zm490 852l164 239h159l-239-239h-84z"/><glyph unicode="Ô" horiz-adv-x="1645" d="M110 713q0 727 718 727 707 0 707-727 0-723-707-723-718 0-718 723zm115 6q0-639 603-639 592 0 592 639 0 631-592 631-603 0-603-631zm348 831l195 260h110l195-260H973l-152 194-148-194H573z"/><glyph unicode="Õ" horiz-adv-x="1645" d="M110 713q0 727 718 727 707 0 707-727 0-723-707-723-718 0-718 723zm115 6q0-639 603-639 592 0 592 639 0 631-592 631-603 0-603-631zm348 955v90q60 46 130 46 52 0 110-26t114-26q75 0 146 46v-90q-60-46-130-46-52 0-110 26t-114 26q-75 0-146-46z"/><glyph unicode="Ö" horiz-adv-x="1645" d="M110 713q0 727 718 727 707 0 707-727 0-723-707-723-718 0-718 723zm115 6q0-639 603-639 592 0 592 639 0 631-592 631-603 0-603-631zm370 941v130h135v-130H595zm320 0v130h135v-130H915z"/><glyph unicode="×" horiz-adv-x="821" d="M110 292l233 233-233 233 71 71 233-233 226 226 64-64-226-226 233-233-71-71-233 233-233-233z"/><glyph unicode="Ø" horiz-adv-x="1645" d="M110 713q0 727 718 727 245 0 405-87l58 77h138l-106-139q212-180 212-578 0-723-707-723-256 0-421 92L345 0H208l109 145Q110 324 110 713zm115 6q0-328 158-487l788 1040q-135 78-343 78-603 0-603-631zm245-555q139-84 358-84 592 0 592 639 0 329-161 487z"/><glyph unicode="Ù" horiz-adv-x="1470" d="M160 552v878h105V552q0-472 470-472t470 472v878h105V552q0-562-575-562T160 552zm360 1258h159l164-239h-84z"/><glyph unicode="Ú" horiz-adv-x="1470" d="M160 552v878h105V552q0-472 470-472t470 472v878h105V552q0-562-575-562T160 552zm467 1019l164 239h159l-239-239h-84z"/><glyph unicode="Û" horiz-adv-x="1470" d="M160 552v878h105V552q0-472 470-472t470 472v878h105V552q0-562-575-562T160 552zm325 998l195 260h110l195-260H885l-152 194-148-194H485z"/><glyph unicode="Ü" horiz-adv-x="1470" d="M160 552v878h105V552q0-472 470-472t470 472v878h105V552q0-562-575-562T160 552zm348 1108v130h135v-130H508zm320 0v130h135v-130H828z"/><glyph unicode="Ý" horiz-adv-x="1250" d="M35 1430h125l463-830 477 830h115L679 500V0H574v500zm482 141l164 239h159l-239-239h-84z"/><glyph unicode="Þ" horiz-adv-x="1263" d="M160 0v1430h105v-308h505q408 0 408-343 0-387-569-479l-28 86q480 85 480 385 0 258-308 258H265V0H160z"/><glyph unicode="ß" horiz-adv-x="1166" d="M160 0v959q0 468 454 468 400 0 400-377v-55Q690 892 690 737q0-121 195.5-192.5T1081 282Q1081 0 707 0H505v90h204q257 0 257 192 0 141-190.5 207.5T585 734q0 208 318 316 0 287-296 287-342 0-342-381V0H160z"/><glyph unicode="à" horiz-adv-x="1095" d="M100 297q0 313 416 313 147 0 314-20v129q0 241-303 241-162 0-332-50v90q170 50 332 50 408 0 408-326V0h-64l-24 104Q650 0 465 0 100 0 100 297zm105 3q0-210 260-210 192 0 365 102v308q-167 20-314 20-311 0-311-220zm157 1130h159l164-239h-84z"/><glyph unicode="á" horiz-adv-x="1095" d="M100 297q0 313 416 313 147 0 314-20v129q0 241-303 241-162 0-332-50v90q170 50 332 50 408 0 408-326V0h-64l-24 104Q650 0 465 0 100 0 100 297zm105 3q0-210 260-210 192 0 365 102v308q-167 20-314 20-311 0-311-220zm245 891l164 239h159l-239-239h-84z"/><glyph unicode="â" horiz-adv-x="1095" d="M100 297q0 313 416 313 147 0 314-20v129q0 241-303 241-162 0-332-50v90q170 50 332 50 408 0 408-326V0h-64l-24 104Q650 0 465 0 100 0 100 297zm105 3q0-210 260-210 192 0 365 102v308q-167 20-314 20-311 0-311-220zm103 870l195 260h110l195-260H708l-152 194-148-194H308z"/><glyph unicode="ã" horiz-adv-x="1095" d="M100 297q0 313 416 313 147 0 314-20v129q0 241-303 241-162 0-332-50v90q170 50 332 50 408 0 408-326V0h-64l-24 104Q650 0 465 0 100 0 100 297zm105 3q0-210 260-210 192 0 365 102v308q-167 20-314 20-311 0-311-220zm103 994v90q60 46 130 46 52 0 110-26t114-26q75 0 146 46v-90q-60-46-130-46-52 0-110 26t-114 26q-75 0-146-46z"/><glyph unicode="ä" horiz-adv-x="1095" d="M100 297q0 313 416 313 147 0 314-20v129q0 241-303 241-162 0-332-50v90q170 50 332 50 408 0 408-326V0h-64l-24 104Q650 0 465 0 100 0 100 297zm105 3q0-210 260-210 192 0 365 102v308q-167 20-314 20-311 0-311-220zm135 980v130h135v-130H340zm320 0v130h135v-130H660z"/><glyph unicode="å" horiz-adv-x="1095" d="M100 297q0 313 416 313 147 0 314-20v129q0 241-303 241-162 0-332-50v90q170 50 332 50 408 0 408-326V0h-64l-24 104Q650 0 465 0 100 0 100 297zm105 3q0-210 260-210 192 0 365 102v308q-167 20-314 20-311 0-311-220zm137 1061q0 200 218 200 214 0 214-200 0-199-214-199-218 0-218 199zm80 2q0-137 138-137 134 0 134 137 0 134-134 134-138 0-138-134z"/><glyph unicode="æ" horiz-adv-x="1837" d="M100 297q0 323 416 323 147 0 334-20v119q0 241-323 241-162 0-332-50v90q170 50 332 50 326 0 392-183 114 183 377 183 431 0 431-477 0-34-2-71H948q0-412 406-412 179 0 318 50V50Q1533 0 1354 0q-274 0-409 155Q700 0 465 0 100 0 100 297zm105 3q0-210 260-210 192 0 385 102v318q-187 20-334 20-311 0-311-230zm743 296h678q-6 366-330 366-330 0-348-366z"/><glyph unicode="ç" horiz-adv-x="1005" d="M110 545q0 505 530 505 150 0 280-30v-90q-140 30-270 30-425 0-425-415 0-455 425-455 130 0 270 30V30Q801 3 665 0l-41-77q224 0 224-172 0-173-241-173-108 0-216 50v88q108-60 216-60 148 0 148 95 0 94-123 94H479L569 3Q110 38 110 545z"/><glyph unicode="è" horiz-adv-x="1146" d="M110 537q0 513 473 513 431 0 431-477 0-34-2-71H215q0-412 436-412 179 0 318 50V50Q830 0 651 0 110 0 110 537zm105 59h698q-6 366-330 366-350 0-368-366zm152 834h159l164-239h-84z"/><glyph unicode="é" horiz-adv-x="1146" d="M110 537q0 513 473 513 431 0 431-477 0-34-2-71H215q0-412 436-412 179 0 318 50V50Q830 0 651 0 110 0 110 537zm105 59h698q-6 366-330 366-350 0-368-366zm239 595l164 239h159l-239-239h-84z"/><glyph unicode="ê" horiz-adv-x="1146" d="M110 537q0 513 473 513 431 0 431-477 0-34-2-71H215q0-412 436-412 179 0 318 50V50Q830 0 651 0 110 0 110 537zm105 59h698q-6 366-330 366-350 0-368-366zm117 574l195 260h110l195-260H732l-152 194-148-194H332z"/><glyph unicode="ë" horiz-adv-x="1146" d="M110 537q0 513 473 513 431 0 431-477 0-34-2-71H215q0-412 436-412 179 0 318 50V50Q830 0 651 0 110 0 110 537zm105 59h698q-6 366-330 366-350 0-368-366zm140 684v130h135v-130H355zm320 0v130h135v-130H675z"/><glyph unicode="ì" horiz-adv-x="445" d="M7 1430h159l164-239h-84zM170 0v1050h105V0H170z"/><glyph unicode="í" horiz-adv-x="445" d="M115 1191l164 239h159l-239-239h-84zM170 0v1050h105V0H170z"/><glyph unicode="î" horiz-adv-x="445" d="M-27 1170l195 260h110l195-260H373l-152 194-148-194H-27zM171 0v1050h105V0H171z"/><glyph unicode="ï" horiz-adv-x="445" d="M5 1280v130h135v-130H5zM180 0v1050h105V0H180zm145 1280v130h135v-130H325z"/><glyph unicode="ð" horiz-adv-x="1170" d="M100 540q0 510 474 510 227 0 356-100-57 183-178 280l-242-119v89l164 81q-117 59-278 59H180v90h218q229 0 380-98l199 98v-89l-129-63q222-206 222-688 0-600-487-600-483 0-483 550zm101 0q0-460 383-460 381 0 381 506 0 116-18 254-120 130-364 130-382 0-382-430z"/><glyph unicode="ñ" horiz-adv-x="1185" d="M160 0v1050h75l13-134q201 134 394 134 383 0 383-331V0H920v722q0 234-283 234-189 0-372-133V0H160zm183 1294v90q60 46 130 46 52 0 110-26t114-26q75 0 146 46v-90q-60-46-130-46-52 0-110 26t-114 26q-75 0-146-46z"/><glyph unicode="ò" horiz-adv-x="1200" d="M110 525q0 535 490 535t490-535Q1090-9 600-9 112-9 110 525zm105 4q0-449 385-449t385 449q0 441-385 441T215 529zm170 901h159l164-239h-84z"/><glyph unicode="ó" horiz-adv-x="1200" d="M110 525q0 535 490 535t490-535Q1090-9 600-9 112-9 110 525zm105 4q0-449 385-449t385 449q0 441-385 441T215 529zm277 662l164 239h159l-239-239h-84z"/><glyph unicode="ô" horiz-adv-x="1200" d="M110 525q0 535 490 535t490-535Q1090-9 600-9 112-9 110 525zm105 4q0-449 385-449t385 449q0 441-385 441T215 529zm135 641l195 260h110l195-260H750l-152 194-148-194H350z"/><glyph unicode="õ" horiz-adv-x="1200" d="M110 525q0 535 490 535t490-535Q1090-9 600-9 112-9 110 525zm105 4q0-449 385-449t385 449q0 441-385 441T215 529zm135 765v90q60 46 130 46 52 0 110-26t114-26q75 0 146 46v-90q-60-46-130-46-52 0-110 26t-114 26q-75 0-146-46z"/><glyph unicode="ö" horiz-adv-x="1200" d="M110 525q0 535 490 535t490-535Q1090-9 600-9 112-9 110 525zm105 4q0-449 385-449t385 449q0 441-385 441T215 529zm158 751v130h135v-130H373zm320 0v130h135v-130H693z"/><glyph unicode="÷" horiz-adv-x="1005" d="M110 480v90h785v-90H110zm320-330v130h145V150H430zm0 620v130h145V770H430z"/><glyph unicode="ø" horiz-adv-x="1203" d="M110 525q0 535 490 535 187 0 303-78l52 68h138L984 907q106-133 106-382Q1090-9 600-9 438-9 330 50L292 0H155l88 115Q111 248 110 525zm105 4q0-218 91-331l537 704q-92 68-243 68-385 0-385-441zm175-401q84-48 210-48 385 0 385 449 0 184-67 291z"/><glyph unicode="ù" horiz-adv-x="1185" d="M160 391v659h105V388q0-294 272-294 199 0 383 133v823h105V0h-77l-12 134Q755 0 532 0 160 0 160 391zm197 1039h159l164-239h-84z"/><glyph unicode="ú" horiz-adv-x="1185" d="M160 391v659h105V388q0-294 272-294 199 0 383 133v823h105V0h-77l-12 134Q755 0 532 0 160 0 160 391zm305 800l164 239h159l-239-239h-84z"/><glyph unicode="û" horiz-adv-x="1185" d="M160 391v659h105V388q0-294 272-294 199 0 383 133v823h105V0h-77l-12 134Q755 0 532 0 160 0 160 391zm163 779l195 260h110l195-260H723l-152 194-148-194H323z"/><glyph unicode="ü" horiz-adv-x="1185" d="M160 391v659h105V388q0-294 272-294 199 0 383 133v823h105V0h-77l-12 134Q755 0 532 0 160 0 160 391zm185 889v130h135v-130H345zm320 0v130h135v-130H665z"/><glyph unicode="ý" horiz-adv-x="1081" d="M35 1050h121l390-948 384 948h116L590-31Q474-317 242-388l-31 84q182 66 278 288zm398 141l164 239h159l-239-239h-84z"/><glyph unicode="þ" horiz-adv-x="1177" d="M160-380v1810h105v-402q137 22 297 22 505 0 505-499Q1067 0 559 0 433 0 265 50v-430H160zm105 534q159-54 293-54 407 0 407 453 0 403-405 403-140 0-295-24V154z"/><glyph unicode="ÿ" horiz-adv-x="1081" d="M35 1050h121l390-948 384 948h116L590-31Q474-317 242-388l-31 84q182 66 278 288zm278 230v130h135v-130H313zm320 0v130h135v-130H633z"/><glyph unicode="Œ" horiz-adv-x="2235" d="M110 713q0 717 718 717h1257v-90h-855q275-137 305-570h515v-90h-515q-30-447-317-590h882V0H828Q110 0 110 713zm115 6q0-629 603-629 592 0 592 629 0 621-592 621-603 0-603-621z"/><glyph unicode="œ" horiz-adv-x="2025" d="M110 525q0 525 490 525 330 0 438-238 103 238 425 238 431 0 431-477 0-34-2-71h-797q0-412 446-412 179 0 318 30V30Q1720 0 1541 0q-378 0-497 253Q940 1 600 1 112 1 110 525zm105 4q0-439 385-439t385 439q0 431-385 431T215 529zm880 67h698q-6 366-330 366-350 0-368-366z"/><glyph unicode="Ÿ" horiz-adv-x="1250" d="M35 1430h125l463-830 477 830h115L679 500V0H574v500zm363 230v130h135v-130H398zm320 0v130h135v-130H718z"/><glyph unicode="ˆ" horiz-adv-x="700" d="M100 1170l195 260h110l195-260H500l-152 194-148-194H100z"/><glyph unicode="˜" horiz-adv-x="700" d="M100 1294v90q60 46 130 46 52 0 110-26t114-26q75 0 146 46v-90q-60-46-130-46-52 0-110 26t-114 26q-75 0-146-46z"/><glyph horiz-adv-x="908"/><glyph horiz-adv-x="1817"/><glyph horiz-adv-x="908"/><glyph horiz-adv-x="1817"/><glyph horiz-adv-x="605"/><glyph horiz-adv-x="454"/><glyph horiz-adv-x="302"/><glyph horiz-adv-x="302"/><glyph horiz-adv-x="227"/><glyph horiz-adv-x="363"/><glyph horiz-adv-x="100"/><glyph unicode="‐" horiz-adv-x="720" d="M110 480v90h500v-90H110z"/><glyph unicode="‑" horiz-adv-x="720" d="M110 480v90h500v-90H110z"/><glyph unicode="‒" horiz-adv-x="720" d="M110 480v90h500v-90H110z"/><glyph unicode="–" horiz-adv-x="1220" d="M110 480v90h1000v-90H110z"/><glyph unicode="—" horiz-adv-x="1720" d="M110 480v90h1500v-90H110z"/><glyph unicode="‘" horiz-adv-x="350" d="M60 995l150 435h115L175 995H60z"/><glyph unicode="’" horiz-adv-x="375" d="M60 995l150 435h115L175 995H60z"/><glyph unicode="‚" horiz-adv-x="350" d="M25-250l150 435h115L140-250H25z"/><glyph unicode="“" horiz-adv-x="650" d="M60 995l150 435h115L175 995H60zm300 0l150 435h115L475 995H360z"/><glyph unicode="”" horiz-adv-x="650" d="M60 995l150 435h115L175 995H60zm300 0l150 435h115L475 995H360z"/><glyph unicode="„" horiz-adv-x="650" d="M25-250l150 435h115L140-250H25zm300 0l150 435h115L440-250H325z"/><glyph unicode="•" horiz-adv-x="610" d="M110 725q0 195 195 195t195-195-195-195-195 195z"/><glyph unicode="…" horiz-adv-x="1055" d="M110 0v125h135V0H110zm350 0v125h135V0H460zm350 0v125h135V0H810z"/><glyph horiz-adv-x="363"/><glyph unicode="‹" horiz-adv-x="550" d="M110 525l258 375h122L232 525l258-375H368z"/><glyph unicode="›" horiz-adv-x="550" d="M60 150l258 375L60 900h122l258-375-258-375H60z"/><glyph horiz-adv-x="454"/><glyph unicode="€" horiz-adv-x="1405" d="M110 735q0 705 750 705 215 0 400-60v-100q-185 70-380 70-568 0-645-438h833v-90H225V652h843v-90H235Q312 80 880 80q195 0 380 70V50q-185-60-400-60-750 0-750 745z"/><glyph unicode="™" horiz-adv-x="1626" d="M160 1359v71h511v-71H459V757h-87v602H160zm600-602v673h110l248-561 242 561h106V757h-78v543l-239-543h-69l-243 543V757h-77z"/><glyph unicode="◼" horiz-adv-x="1050" d="M0 0v1050h1050V0H0z"/></font>
</defs>
</svg>
